M48
;GenerationSoftware,Autodesk,EAGLE,9.6.0*%
;CreationDate,2020-05-06T20:48:19Z*%
FMAT,2
ICI,OFF
METRIC,TZ,000.000
T5C0.305
T4C0.381
T3C1.016
T2C1.500
T1C3.302
%
G90
M71
T1
X35560Y112776
X151384Y151384
X2540Y2540
X35560Y2540
X35560Y35560
X2540Y35560
X41148Y2540
X74168Y2540
X74168Y35560
X41148Y35560
X79756Y2540
X112776Y2540
X112776Y35560
X79756Y35560
X118364Y2540
X151384Y2540
X151384Y35560
X118364Y35560
X2540Y41148
X35560Y41148
X35560Y74168
X2540Y74168
X41148Y41148
X74168Y41148
X74168Y74168
X41148Y74168
X79756Y41148
X112776Y41148
X112776Y74168
X79756Y74168
X118364Y41148
X151384Y41148
X151384Y74168
X118364Y74168
X2540Y79756
X35560Y79756
X118364Y151384
X2540Y112776
X41148Y79756
X74168Y79756
X74168Y112776
X41148Y112776
X79756Y79756
X112776Y79756
X112776Y112776
X79756Y112776
X118364Y79756
X151384Y79756
X151384Y112776
X118364Y112776
X2540Y118364
X35560Y118364
X35560Y151384
X2540Y151384
X41148Y118364
X74168Y118364
X74168Y151384
X41148Y151384
X79756Y118364
X112776Y118364
X112776Y151384
X79756Y151384
X118364Y118364
X151384Y118364
T2
X127374Y108966
X16550Y31750
X26550Y70358
X60158Y70358
X103766Y70358
X127374Y31750
X132374Y31750
X11550Y31750
X103766Y108966
X21550Y31750
X26550Y31750
X137374Y31750
X98766Y108966
X93766Y108966
X88766Y108966
X142374Y31750
X98766Y70358
X142374Y70358
X137374Y70358
X132374Y70358
X50158Y31750
X55158Y31750
X60158Y31750
X65158Y31750
X127374Y70358
X65158Y108966
X60158Y108966
X55158Y108966
X50158Y108966
X93766Y70358
X88766Y70358
X65158Y70358
X50158Y70358
X55158Y70358
X88766Y31750
X93766Y31750
X98766Y31750
X103766Y31750
X11550Y70358
X26550Y108966
X21550Y108966
X16550Y108966
X11550Y108966
X16550Y70358
X21550Y70358
X132374Y108966
X137374Y108966
X142374Y108966
X11550Y147574
X16550Y147574
X21550Y147574
X26550Y147574
X50158Y147574
X55158Y147574
X60158Y147574
X65158Y147574
X88766Y147574
X93766Y147574
X98766Y147574
X103766Y147574
X127374Y147574
X132374Y147574
X137374Y147574
X142374Y147574
T3
X136144Y1270
X138684Y1270
X141224Y1270
X131064Y1270
X128524Y1270
X17780Y39878
X20320Y39878
X22860Y39878
X25400Y39878
X15240Y39878
X12700Y39878
X56388Y39878
X58928Y39878
X61468Y39878
X64008Y39878
X53848Y39878
X51308Y39878
X94996Y39878
X97536Y39878
X100076Y39878
X102616Y39878
X92456Y39878
X89916Y39878
X133604Y39878
X136144Y39878
X138684Y39878
X141224Y39878
X131064Y39878
X128524Y39878
X17780Y78486
X20320Y78486
X22860Y78486
X25400Y78486
X15240Y78486
X12700Y78486
X56388Y78486
X58928Y78486
X61468Y78486
X64008Y78486
X53848Y78486
X51308Y78486
X94996Y78486
X97536Y78486
X100076Y78486
X102616Y78486
X92456Y78486
X89916Y78486
X53848Y117094
X133604Y78486
X136144Y78486
X138684Y78486
X141224Y78486
X131064Y78486
X17780Y1270
X20320Y1270
X22860Y1270
X128524Y78486
X17780Y117094
X20320Y117094
X22860Y117094
X25400Y117094
X15240Y117094
X25400Y1270
X15240Y1270
X12700Y1270
X56388Y1270
X12700Y117094
X56388Y117094
X58928Y117094
X61468Y117094
X64008Y117094
X58928Y1270
X61468Y1270
X64008Y1270
X53848Y1270
X51308Y117094
X94996Y117094
X97536Y117094
X100076Y117094
X102616Y117094
X92456Y117094
X51308Y1270
X94996Y1270
X97536Y1270
X100076Y1270
X89916Y117094
X133604Y117094
X136144Y117094
X138684Y117094
X141224Y117094
X131064Y117094
X102616Y1270
X92456Y1270
X89916Y1270
X133604Y1270
X128524Y117094
T4
X25400Y33020
X97536Y71628
X102616Y33020
X97536Y33020
X92456Y33020
X125984Y110236
X131064Y110236
X136144Y110236
X141224Y110236
X87376Y33020
X102616Y71628
X10160Y110236
X15240Y110236
X20320Y110236
X25400Y110236
X58928Y71628
X64008Y71628
X48768Y71628
X25400Y71628
X10160Y148844
X15240Y148844
X20320Y148844
X25400Y148844
X20320Y71628
X64008Y33020
X58928Y33020
X53848Y33020
X87376Y110236
X48768Y33020
X141224Y33020
X48768Y110236
X53848Y110236
X58928Y110236
X48768Y148844
X53848Y148844
X58928Y148844
X64008Y148844
X64008Y110236
X136144Y33020
X131064Y33020
X125984Y33020
X15240Y71628
X125984Y71628
X20320Y33020
X15240Y33020
X10160Y33020
X141224Y148844
X87376Y148844
X92456Y148844
X97536Y148844
X102616Y148844
X131064Y71628
X136144Y71628
X92456Y110236
X97536Y110236
X102616Y110236
X141224Y71628
X10160Y71628
X53848Y71628
X87376Y71628
X92456Y71628
X125984Y148844
X131064Y148844
X136144Y148844
T5
X137160Y15240
X137160Y12573
X140589Y14859
X140589Y13081
X118364Y14605
X117094Y19050
X122428Y20574
X127635Y19812
X128651Y18669
X128651Y23368
X152654Y19050
X133731Y23749
X133096Y14224
X130302Y13335
X126365Y16637
X127762Y11684
X138430Y18161
X141859Y18288
X144526Y18288
X144399Y23749
X131191Y23749
X129794Y34290
X134874Y34290
X139954Y34290
X146304Y34290
X146304Y26670
X123444Y26670
X123444Y34290
X131826Y26162
X141859Y26162
X131064Y6096
X128524Y6223
X135890Y8255
X138811Y10160
X144272Y13970
X151638Y14732
X131318Y8255
X125476Y1270
X151384Y27432
X148844Y27432
X128524Y7620
X132588Y12446
X133858Y5969
X128524Y4064
X131064Y4064
X136144Y4064
X150114Y19812
X128524Y4826
X131064Y4826
X136144Y4826
X148844Y21590
X139954Y3810
X118618Y25400
X127762Y8255
X134874Y13970
X136144Y13970
X135255Y25019
X139827Y24003
X136398Y19177
X138303Y23622
X3810Y60198
X34417Y66040
X19050Y51181
X15494Y49022
X9652Y61341
X1270Y67818
X5080Y59944
X31750Y56134
X20066Y62357
X25527Y62357
X26035Y50419
X28829Y42418
X33655Y47244
X27686Y44958
X32004Y49022
X29210Y40386
X32893Y43688
X35560Y46482
X2540Y50038
X9398Y42418
X6223Y45974
X8890Y48768
X6350Y51308
X10541Y47244
X6350Y55118
X15240Y54737
X20193Y53848
X21336Y53848
X21336Y51181
X24765Y53467
X24765Y51689
X2540Y53213
X1270Y57658
X6604Y59182
X11811Y58420
X12827Y57277
X12827Y61976
X36830Y57658
X17907Y62357
X17272Y52832
X14478Y51943
X10541Y55245
X11938Y50292
X22606Y56769
X26035Y56896
X28702Y56896
X28575Y62357
X15367Y62357
X13970Y72898
X19050Y72898
X24130Y72898
X30480Y72898
X30480Y65278
X7620Y65278
X7620Y72898
X16002Y64770
X26035Y64770
X15240Y44704
X12700Y44831
X20066Y46863
X22987Y48768
X28448Y52578
X35814Y53340
X15494Y46863
X9652Y39878
X35560Y66040
X33020Y66040
X12700Y46228
X16764Y51054
X18034Y44577
X12700Y42672
X15240Y42672
X20320Y42672
X34290Y58420
X12700Y43434
X15240Y43434
X20320Y43434
X33020Y60198
X24130Y42418
X2794Y64008
X11938Y46863
X19050Y52578
X20320Y52578
X19431Y63627
X24003Y62611
X20574Y57785
X22479Y62230
X42418Y60198
X73025Y66040
X57658Y51181
X54102Y49022
X48260Y61341
X39878Y67818
X43688Y59944
X70358Y56134
X58674Y62357
X64135Y62357
X64643Y50419
X67437Y42418
X72263Y47244
X66294Y44958
X70612Y49022
X67818Y40386
X71501Y43688
X74168Y46482
X41148Y50038
X48006Y42418
X44831Y45974
X47498Y48768
X44958Y51308
X49149Y47244
X44958Y55118
X53848Y54737
X58801Y53848
X59944Y53848
X59944Y51181
X63373Y53467
X63373Y51689
X41148Y53213
X39878Y57658
X45212Y59182
X50419Y58420
X51435Y57277
X51435Y61976
X75438Y57658
X56515Y62357
X55880Y52832
X53086Y51943
X49149Y55245
X50546Y50292
X61214Y56769
X64643Y56896
X67310Y56896
X67183Y62357
X53975Y62357
X52578Y72898
X57658Y72898
X62738Y72898
X69088Y72898
X69088Y65278
X46228Y65278
X46228Y72898
X54610Y64770
X64643Y64770
X53848Y44704
X51308Y44831
X58674Y46863
X61595Y48768
X67056Y52578
X74422Y53340
X54102Y46863
X48260Y39878
X74168Y66040
X71628Y66040
X51308Y46228
X55372Y51054
X56642Y44577
X51308Y42672
X53848Y42672
X58928Y42672
X72898Y58420
X51308Y43434
X53848Y43434
X58928Y43434
X71628Y60198
X62738Y42418
X41402Y64008
X50546Y46863
X57658Y52578
X58928Y52578
X58039Y63627
X62611Y62611
X59182Y57785
X61087Y62230
X81026Y60198
X111633Y66040
X96266Y51181
X92710Y49022
X86868Y61341
X78486Y67818
X82296Y59944
X108966Y56134
X97282Y62357
X102743Y62357
X103251Y50419
X106045Y42418
X110871Y47244
X104902Y44958
X109220Y49022
X106426Y40386
X110109Y43688
X112776Y46482
X79756Y50038
X86614Y42418
X83439Y45974
X86106Y48768
X83566Y51308
X87757Y47244
X83566Y55118
X92456Y54737
X97409Y53848
X98552Y53848
X98552Y51181
X101981Y53467
X101981Y51689
X79756Y53213
X78486Y57658
X83820Y59182
X89027Y58420
X90043Y57277
X90043Y61976
X114046Y57658
X95123Y62357
X94488Y52832
X91694Y51943
X87757Y55245
X89154Y50292
X99822Y56769
X103251Y56896
X105918Y56896
X105791Y62357
X92583Y62357
X91186Y72898
X96266Y72898
X101346Y72898
X107696Y72898
X107696Y65278
X84836Y65278
X84836Y72898
X93218Y64770
X103251Y64770
X92456Y44704
X89916Y44831
X97282Y46863
X100203Y48768
X105664Y52578
X113030Y53340
X92710Y46863
X86868Y39878
X112776Y66040
X110236Y66040
X89916Y46228
X93980Y51054
X95250Y44577
X89916Y42672
X92456Y42672
X97536Y42672
X111506Y58420
X89916Y43434
X92456Y43434
X97536Y43434
X110236Y60198
X101346Y42418
X80010Y64008
X89154Y46863
X96266Y52578
X97536Y52578
X96647Y63627
X101219Y62611
X97790Y57785
X99695Y62230
X119634Y60198
X150241Y66040
X134874Y51181
X131318Y49022
X125476Y61341
X117094Y67818
X120904Y59944
X147574Y56134
X135890Y62357
X141351Y62357
X141859Y50419
X144653Y42418
X149479Y47244
X143510Y44958
X147828Y49022
X145034Y40386
X148717Y43688
X151384Y46482
X118364Y50038
X125222Y42418
X122047Y45974
X124714Y48768
X122174Y51308
X126365Y47244
X122174Y55118
X131064Y54737
X136017Y53848
X137160Y53848
X137160Y51181
X140589Y53467
X140589Y51689
X118364Y53213
X117094Y57658
X122428Y59182
X127635Y58420
X128651Y57277
X128651Y61976
X152654Y57658
X133731Y62357
X133096Y52832
X130302Y51943
X126365Y55245
X127762Y50292
X138430Y56769
X141859Y56896
X144526Y56896
X144399Y62357
X131191Y62357
X129794Y72898
X134874Y72898
X139954Y72898
X146304Y72898
X146304Y65278
X123444Y65278
X123444Y72898
X131826Y64770
X141859Y64770
X131064Y44704
X128524Y44831
X135890Y46863
X138811Y48768
X144272Y52578
X151638Y53340
X131318Y46863
X125476Y39878
X151384Y66040
X148844Y66040
X128524Y46228
X132588Y51054
X133858Y44577
X128524Y42672
X131064Y42672
X136144Y42672
X150114Y58420
X128524Y43434
X131064Y43434
X136144Y43434
X148844Y60198
X139954Y42418
X118618Y64008
X127762Y46863
X134874Y52578
X136144Y52578
X135255Y63627
X139827Y62611
X136398Y57785
X138303Y62230
X3810Y98806
X34417Y104648
X19050Y89789
X15494Y87630
X9652Y99949
X1270Y106426
X5080Y98552
X31750Y94742
X20066Y100965
X25527Y100965
X26035Y89027
X28829Y81026
X33655Y85852
X27686Y83566
X32004Y87630
X29210Y78994
X32893Y82296
X35560Y85090
X2540Y88646
X9398Y81026
X6223Y84582
X8890Y87376
X6350Y89916
X10541Y85852
X6350Y93726
X15240Y93345
X20193Y92456
X21336Y92456
X21336Y89789
X24765Y92075
X24765Y90297
X2540Y91821
X1270Y96266
X6604Y97790
X11811Y97028
X12827Y95885
X12827Y100584
X36830Y96266
X17907Y100965
X17272Y91440
X14478Y90551
X10541Y93853
X11938Y88900
X22606Y95377
X26035Y95504
X28702Y95504
X28575Y100965
X15367Y100965
X13970Y111506
X19050Y111506
X24130Y111506
X30480Y111506
X30480Y103886
X7620Y103886
X7620Y111506
X16002Y103378
X26035Y103378
X15240Y83312
X12700Y83439
X20066Y85471
X22987Y87376
X28448Y91186
X35814Y91948
X15494Y85471
X9652Y78486
X35560Y104648
X33020Y104648
X12700Y84836
X16764Y89662
X18034Y83185
X12700Y81280
X15240Y81280
X20320Y81280
X34290Y97028
X12700Y82042
X15240Y82042
X20320Y82042
X33020Y98806
X24130Y81026
X2794Y102616
X11938Y85471
X19050Y91186
X20320Y91186
X19431Y102235
X24003Y101219
X20574Y96393
X22479Y100838
X42418Y98806
X73025Y104648
X57658Y89789
X54102Y87630
X48260Y99949
X39878Y106426
X43688Y98552
X70358Y94742
X58674Y100965
X64135Y100965
X64643Y89027
X67437Y81026
X72263Y85852
X66294Y83566
X70612Y87630
X67818Y78994
X71501Y82296
X74168Y85090
X41148Y88646
X48006Y81026
X44831Y84582
X47498Y87376
X44958Y89916
X49149Y85852
X44958Y93726
X53848Y93345
X58801Y92456
X59944Y92456
X59944Y89789
X63373Y92075
X63373Y90297
X41148Y91821
X39878Y96266
X45212Y97790
X50419Y97028
X51435Y95885
X51435Y100584
X75438Y96266
X56515Y100965
X55880Y91440
X53086Y90551
X49149Y93853
X50546Y88900
X61214Y95377
X64643Y95504
X67310Y95504
X67183Y100965
X53975Y100965
X52578Y111506
X57658Y111506
X62738Y111506
X69088Y111506
X69088Y103886
X46228Y103886
X46228Y111506
X54610Y103378
X64643Y103378
X90043Y23368
X51308Y83439
X58674Y85471
X61595Y87376
X67056Y91186
X74422Y91948
X54102Y85471
X48260Y78486
X74168Y104648
X71628Y104648
X51308Y84836
X55372Y89662
X56642Y83185
X51308Y81280
X53848Y81280
X58928Y81280
X72898Y97028
X51308Y82042
X53848Y82042
X58928Y82042
X71628Y98806
X62738Y81026
X41402Y102616
X50546Y85471
X57658Y91186
X58928Y91186
X58039Y102235
X62611Y101219
X59182Y96393
X61087Y100838
X81026Y98806
X111633Y104648
X96266Y89789
X92710Y87630
X86868Y99949
X78486Y106426
X82296Y98552
X108966Y94742
X97282Y100965
X102743Y100965
X103251Y89027
X106045Y81026
X110871Y85852
X104902Y83566
X109220Y87630
X106426Y78994
X110109Y82296
X112776Y85090
X79756Y88646
X86614Y81026
X83439Y84582
X86106Y87376
X83566Y89916
X87757Y85852
X83566Y93726
X92456Y93345
X97409Y92456
X98552Y92456
X98552Y89789
X101981Y92075
X101981Y90297
X79756Y91821
X78486Y96266
X83820Y97790
X89027Y97028
X90043Y95885
X90043Y100584
X114046Y96266
X95123Y100965
X94488Y91440
X91694Y90551
X87757Y93853
X89154Y88900
X99822Y95377
X103251Y95504
X105918Y95504
X105791Y100965
X92583Y100965
X91186Y111506
X96266Y111506
X101346Y111506
X107696Y111506
X107696Y103886
X84836Y103886
X84836Y111506
X93218Y103378
X103251Y103378
X92456Y83312
X89916Y83439
X97282Y85471
X100203Y87376
X105664Y91186
X113030Y91948
X92710Y85471
X86868Y78486
X112776Y104648
X110236Y104648
X89916Y84836
X93980Y89662
X95250Y83185
X89916Y81280
X92456Y81280
X97536Y81280
X111506Y97028
X89916Y82042
X92456Y82042
X97536Y82042
X110236Y98806
X101346Y81026
X80010Y102616
X89154Y85471
X96266Y91186
X97536Y91186
X96647Y102235
X101219Y101219
X97790Y96393
X99695Y100838
X119634Y98806
X150241Y104648
X134874Y89789
X131318Y87630
X125476Y99949
X117094Y106426
X120904Y98552
X147574Y94742
X135890Y100965
X141351Y100965
X141859Y89027
X144653Y81026
X149479Y85852
X143510Y83566
X147828Y87630
X145034Y78994
X148717Y82296
X151384Y85090
X118364Y88646
X125222Y81026
X122047Y84582
X124714Y87376
X122174Y89916
X126365Y85852
X122174Y93726
X131064Y93345
X136017Y92456
X137160Y92456
X137160Y89789
X140589Y92075
X140589Y90297
X118364Y91821
X117094Y96266
X122428Y97790
X127635Y97028
X128651Y95885
X128651Y100584
X152654Y96266
X133731Y100965
X133096Y91440
X130302Y90551
X126365Y93853
X127762Y88900
X138430Y95377
X141859Y95504
X144526Y95504
X144399Y100965
X131191Y100965
X129794Y111506
X134874Y111506
X139954Y111506
X146304Y111506
X146304Y103886
X123444Y103886
X123444Y111506
X131826Y103378
X141859Y103378
X131064Y83312
X128524Y83439
X135890Y85471
X138811Y87376
X144272Y91186
X151638Y91948
X131318Y85471
X125476Y78486
X151384Y104648
X148844Y104648
X128524Y84836
X132588Y89662
X133858Y83185
X128524Y81280
X131064Y81280
X136144Y81280
X150114Y97028
X128524Y82042
X131064Y82042
X136144Y82042
X148844Y98806
X139954Y81026
X118618Y102616
X127762Y85471
X134874Y91186
X136144Y91186
X135255Y102235
X139827Y101219
X136398Y96393
X138303Y100838
X3810Y137414
X34417Y143256
X19050Y128397
X15494Y126238
X9652Y138557
X1270Y145034
X5080Y137160
X31750Y133350
X20066Y139573
X25527Y139573
X26035Y127635
X28829Y119634
X33655Y124460
X27686Y122174
X32004Y126238
X29210Y117602
X32893Y120904
X35560Y123698
X2540Y127254
X9398Y119634
X6223Y123190
X8890Y125984
X6350Y128524
X10541Y124460
X6350Y132334
X15240Y131953
X20193Y131064
X21336Y131064
X21336Y128397
X24765Y130683
X24765Y128905
X2540Y130429
X1270Y134874
X6604Y136398
X11811Y135636
X12827Y134493
X12827Y139192
X36830Y134874
X17907Y139573
X17272Y130048
X14478Y129159
X10541Y132461
X11938Y127508
X22606Y133985
X26035Y134112
X28702Y134112
X28575Y139573
X15367Y139573
X13970Y150114
X19050Y150114
X24130Y150114
X30480Y150114
X30480Y142494
X7620Y142494
X7620Y150114
X16002Y141986
X26035Y141986
X15240Y121920
X12700Y122047
X20066Y124079
X22987Y125984
X28448Y129794
X35814Y130556
X15494Y124079
X9652Y117094
X35560Y143256
X33020Y143256
X12700Y123444
X16764Y128270
X18034Y121793
X12700Y119888
X15240Y119888
X20320Y119888
X34290Y135636
X12700Y120650
X15240Y120650
X20320Y120650
X33020Y137414
X24130Y119634
X2794Y141224
X11938Y124079
X19050Y129794
X20320Y129794
X19431Y140843
X24003Y139827
X20574Y135001
X22479Y139446
X42418Y137414
X73025Y143256
X57658Y128397
X54102Y126238
X48260Y138557
X39878Y145034
X43688Y137160
X70358Y133350
X58674Y139573
X64135Y139573
X64643Y127635
X67437Y119634
X72263Y124460
X66294Y122174
X70612Y126238
X67818Y117602
X71501Y120904
X74168Y123698
X41148Y127254
X48006Y119634
X44831Y123190
X47498Y125984
X44958Y128524
X49149Y124460
X44958Y132334
X53848Y131953
X58801Y131064
X59944Y131064
X59944Y128397
X63373Y130683
X63373Y128905
X41148Y130429
X39878Y134874
X45212Y136398
X50419Y135636
X51435Y134493
X51435Y139192
X75438Y134874
X56515Y139573
X55880Y130048
X53086Y129159
X49149Y132461
X50546Y127508
X61214Y133985
X64643Y134112
X67310Y134112
X67183Y139573
X53975Y139573
X52578Y150114
X57658Y150114
X62738Y150114
X69088Y150114
X69088Y142494
X46228Y142494
X46228Y150114
X54610Y141986
X64643Y141986
X53848Y121920
X51308Y122047
X58674Y124079
X61595Y125984
X67056Y129794
X74422Y130556
X54102Y124079
X48260Y117094
X74168Y143256
X71628Y143256
X51308Y123444
X55372Y128270
X56642Y121793
X51308Y119888
X53848Y119888
X58928Y119888
X72898Y135636
X51308Y120650
X53848Y120650
X58928Y120650
X71628Y137414
X62738Y119634
X41402Y141224
X50546Y124079
X57658Y129794
X58928Y129794
X58039Y140843
X62611Y139827
X59182Y135001
X61087Y139446
X81026Y137414
X111633Y143256
X96266Y128397
X92710Y126238
X86868Y138557
X78486Y145034
X82296Y137160
X108966Y133350
X97282Y139573
X102743Y139573
X103251Y127635
X106045Y119634
X110871Y124460
X104902Y122174
X109220Y126238
X106426Y117602
X110109Y120904
X112776Y123698
X79756Y127254
X86614Y119634
X83439Y123190
X86106Y125984
X83566Y128524
X87757Y124460
X83566Y132334
X92456Y131953
X97409Y131064
X98552Y131064
X98552Y128397
X101981Y130683
X101981Y128905
X79756Y130429
X78486Y134874
X83820Y136398
X89027Y135636
X90043Y134493
X90043Y139192
X114046Y134874
X95123Y139573
X94488Y130048
X91694Y129159
X3810Y21590
X89154Y127508
X99822Y133985
X103251Y134112
X105918Y134112
X105791Y139573
X92583Y139573
X91186Y150114
X96266Y150114
X101346Y150114
X107696Y150114
X107696Y142494
X84836Y142494
X84836Y150114
X93218Y141986
X103251Y141986
X92456Y121920
X89916Y122047
X97282Y124079
X100203Y125984
X105664Y129794
X113030Y130556
X92710Y124079
X86868Y117094
X112776Y143256
X110236Y143256
X89916Y123444
X93980Y128270
X95250Y121793
X89916Y119888
X92456Y119888
X97536Y119888
X111506Y135636
X89916Y120650
X92456Y120650
X97536Y120650
X110236Y137414
X101346Y119634
X80010Y141224
X89154Y124079
X96266Y129794
X97536Y129794
X96647Y140843
X101219Y139827
X97790Y135001
X99695Y139446
X119634Y137414
X150241Y143256
X134874Y128397
X131318Y126238
X125476Y138557
X117094Y145034
X120904Y137160
X147574Y133350
X135890Y139573
X141351Y139573
X141859Y127635
X144653Y119634
X149479Y124460
X143510Y122174
X147828Y126238
X145034Y117602
X148717Y120904
X151384Y123698
X118364Y127254
X125222Y119634
X122047Y123190
X124714Y125984
X122174Y128524
X126365Y124460
X122174Y132334
X131064Y131953
X136017Y131064
X137160Y131064
X137160Y128397
X140589Y130683
X140589Y128905
X118364Y130429
X117094Y134874
X122428Y136398
X127635Y135636
X128651Y134493
X128651Y139192
X152654Y134874
X133731Y139573
X133096Y130048
X130302Y129159
X126365Y132461
X127762Y127508
X138430Y133985
X141859Y134112
X144526Y134112
X144399Y139573
X131191Y139573
X129794Y150114
X134874Y150114
X139954Y150114
X146304Y150114
X146304Y142494
X123444Y142494
X123444Y150114
X131826Y141986
X141859Y141986
X131064Y121920
X128524Y122047
X135890Y124079
X138811Y125984
X144272Y129794
X151638Y130556
X131318Y124079
X125476Y117094
X151384Y143256
X148844Y143256
X128524Y123444
X132588Y128270
X133858Y121793
X128524Y119888
X131064Y119888
X136144Y119888
X150114Y135636
X128524Y120650
X131064Y120650
X136144Y120650
X148844Y137414
X139954Y119634
X118618Y141224
X127762Y124079
X134874Y129794
X136144Y129794
X135255Y140843
X139827Y139827
X136398Y135001
X138303Y139446
X34417Y27432
X19050Y12573
X15494Y10414
X9652Y22733
X1270Y29210
X5080Y21336
X31750Y17526
X20066Y23749
X25527Y23749
X26035Y11811
X28829Y3810
X33655Y8636
X27686Y6350
X32004Y10414
X29210Y1778
X32893Y5080
X35560Y7874
X2540Y11430
X9398Y3810
X6223Y7366
X8890Y10160
X6350Y12700
X10541Y8636
X6350Y16510
X15240Y16129
X20193Y15240
X21336Y15240
X21336Y12573
X24765Y14859
X24765Y13081
X2540Y14605
X1270Y19050
X6604Y20574
X11811Y19812
X12827Y18669
X12827Y23368
X36830Y19050
X17907Y23749
X17272Y14224
X14478Y13335
X10541Y16637
X11938Y11684
X22606Y18161
X26035Y18288
X28702Y18288
X28575Y23749
X15367Y23749
X13970Y34290
X19050Y34290
X24130Y34290
X30480Y34290
X30480Y26670
X7620Y26670
X7620Y34290
X16002Y26162
X26035Y26162
X15240Y6096
X12700Y6223
X20066Y8255
X22987Y10160
X28448Y13970
X35814Y14732
X15494Y8255
X9652Y1270
X35560Y27432
X33020Y27432
X12700Y7620
X16764Y12446
X18034Y5969
X12700Y4064
X15240Y4064
X20320Y4064
X34290Y19812
X12700Y4826
X15240Y4826
X20320Y4826
X33020Y21590
X53848Y83312
X24130Y3810
X2794Y25400
X11938Y8255
X19050Y13970
X20320Y13970
X19431Y25019
X24003Y24003
X20574Y19177
X22479Y23622
X42418Y21590
X73025Y27432
X57658Y12573
X54102Y10414
X48260Y22733
X39878Y29210
X43688Y21336
X70358Y17526
X58674Y23749
X64135Y23749
X64643Y11811
X67437Y3810
X72263Y8636
X66294Y6350
X70612Y10414
X67818Y1778
X71501Y5080
X74168Y7874
X41148Y11430
X48006Y3810
X44831Y7366
X47498Y10160
X44958Y12700
X49149Y8636
X44958Y16510
X53848Y16129
X58801Y15240
X59944Y15240
X59944Y12573
X63373Y14859
X63373Y13081
X41148Y14605
X39878Y19050
X45212Y20574
X50419Y19812
X51435Y18669
X51435Y23368
X75438Y19050
X56515Y23749
X55880Y14224
X53086Y13335
X49149Y16637
X50546Y11684
X61214Y18161
X64643Y18288
X67310Y18288
X67183Y23749
X53975Y23749
X52578Y34290
X57658Y34290
X62738Y34290
X69088Y34290
X69088Y26670
X46228Y26670
X46228Y34290
X54610Y26162
X64643Y26162
X53848Y6096
X51308Y6223
X58674Y8255
X61595Y10160
X67056Y13970
X74422Y14732
X54102Y8255
X48260Y1270
X74168Y27432
X71628Y27432
X51308Y7620
X55372Y12446
X56642Y5969
X51308Y4064
X53848Y4064
X58928Y4064
X72898Y19812
X51308Y4826
X53848Y4826
X58928Y4826
X71628Y21590
X62738Y3810
X41402Y25400
X50546Y8255
X57658Y13970
X58928Y13970
X58039Y25019
X62611Y24003
X59182Y19177
X61087Y23622
X81026Y21590
X111633Y27432
X96266Y12573
X92710Y10414
X86868Y22733
X78486Y29210
X82296Y21336
X108966Y17526
X97282Y23749
X102743Y23749
X103251Y11811
X106045Y3810
X110871Y8636
X104902Y6350
X109220Y10414
X106426Y1778
X110109Y5080
X112776Y7874
X79756Y11430
X86614Y3810
X83439Y7366
X86106Y10160
X83566Y12700
X87757Y8636
X83566Y16510
X92456Y16129
X97409Y15240
X98552Y15240
X98552Y12573
X101981Y14859
X101981Y13081
X79756Y14605
X78486Y19050
X83820Y20574
X89027Y19812
X90043Y18669
X114046Y19050
X95123Y23749
X94488Y14224
X91694Y13335
X87757Y16637
X89154Y11684
X99822Y18161
X103251Y18288
X105918Y18288
X105791Y23749
X92583Y23749
X91186Y34290
X96266Y34290
X101346Y34290
X107696Y34290
X107696Y26670
X84836Y26670
X84836Y34290
X93218Y26162
X103251Y26162
X92456Y6096
X89916Y6223
X97282Y8255
X100203Y10160
X105664Y13970
X113030Y14732
X92710Y8255
X86868Y1270
X112776Y27432
X110236Y27432
X89916Y7620
X93980Y12446
X95250Y5969
X89916Y4064
X92456Y4064
X97536Y4064
X111506Y19812
X89916Y4826
X92456Y4826
X97536Y4826
X110236Y21590
X101346Y3810
X80010Y25400
X89154Y8255
X96266Y13970
X97536Y13970
X96647Y25019
X101219Y24003
X97790Y19177
X99695Y23622
X119634Y21590
X150241Y27432
X134874Y12573
X131318Y10414
X125476Y22733
X117094Y29210
X120904Y21336
X147574Y17526
X135890Y23749
X141351Y23749
X141859Y11811
X144653Y3810
X149479Y8636
X143510Y6350
X147828Y10414
X145034Y1778
X148717Y5080
X151384Y7874
X118364Y11430
X125222Y3810
X122047Y7366
X124714Y10160
X122174Y12700
X126365Y8636
X122174Y16510
X131064Y16129
X136017Y15240
X87757Y132461
M30